<?xml version="1.0" encoding="UTF-8"?>
<!DOCTYPE svg PUBLIC "-//W3C//DTD SVG 1.1//EN" "http://www.w3.org/Graphics/SVG/1.1/DTD/svg11.dtd">
<svg version="1.1" xmlns="http://www.w3.org/2000/svg" xmlns:xlink="http://www.w3.org/1999/xlink" x="0" y="0" width="120" height="120" viewBox="0, 0, 1600, 1200">
  <defs>
    <clipPath id="Clip_1">
      <path d="M0.06,0 L1600,0 L1600,1199.94 L0.06,1199.94 z"/>
    </clipPath>
    <clipPath id="Clip_2">
      <path d="M0.06,0 L1600,0 L1600,1199.94 L0.06,1199.94 z"/>
    </clipPath>
    <clipPath id="Clip_3">
      <path d="M0.06,0 L1600,0 L1600,1199.94 L0.06,1199.94 z"/>
    </clipPath>
    <clipPath id="Clip_4">
      <path d="M0.06,0 L1600,0 L1600,1199.94 L0.06,1199.94 z"/>
    </clipPath>
    <clipPath id="Clip_5">
      <path d="M0.06,0 L1600,0 L1600,1199.94 L0.06,1199.94 z"/>
    </clipPath>
  </defs>
  <g id="Layer_1">
    <path d="M725,0 L875,0 L875,100 L725,100 z" fill="#9E9F9E"/>
    <g clip-path="url(#Clip_1)">
      <path d="M830,49.999 C830,66.568 816.568,80 800,80 C783.431,80 770,66.568 770,49.999 C770,33.432 783.431,20 800,20 C816.568,20 830,33.432 830,49.999" fill="#CBCCCB"/>
      <path d="M0.06,1120 L1600,1120 L1600,1199.94 L0.06,1199.94 z" fill="#A3813F"/>
      <path d="M0.06,1090 L1600,1090 L1600,1120 L0.06,1120 z" fill="#9D6139"/>
      <path d="M0,1150 L1599,1150 M30,1150 L30,1200 M100,1150 L100,1200 M170,1150 L170,1200 M240,1150 L240,1200 M310,1150 L310,1200 M380,1150 L380,1200 M450,1150 L450,1200 M520,1150 L520,1200 M590,1150 L590,1200 M660,1150 L660,1200 M730,1150 L730,1200 M800,1150 L800,1200 M870,1150 L870,1200 M940,1150 L940,1200 M1010,1150 L1010,1200 M1080,1150 L1080,1200 M1150,1150 L1150,1200 M1220,1150 L1220,1200 M1290,1150 L1290,1200 M1360,1150 L1360,1200 M1430,1150 L1430,1200 M1500,1150 L1500,1200 M1570,1150 L1570,1200" fill-opacity="0" stroke="#FFFFFE" stroke-width="5.669"/>
      <path d="M0.06,120 L1600,120 L1600,770 L0.06,770 z" fill="#CBCCCB"/>
    </g>
    <path d="M167.5,789.33 L267.5,789.33 L267.5,819.33 L167.5,819.33 z" fill="#CBCCCB"/>
    <path d="M1332.5,789.33 L1432.5,789.33 L1432.5,819.33 L1332.5,819.33 z" fill="#CBCCCB"/>
    <path d="M167.5,765 L1432.5,765 L1432.5,795 L167.5,795 z" fill="#CBCCCB"/>
    <path d="M167.5,135.195 L1432.5,135.195 L1432.5,754.805 L167.5,754.805 z" fill="#1B8B3D"/>
    <g clip-path="url(#Clip_2)">
      <path d="M1450,135.195 L1600,135.195 L1600,754.805 L1450,754.805 z" fill="#77AF5A"/>
      <path d="M0.06,135.195 L150,135.195 L150,754.805 L0.06,754.805 z" fill="#77AF5A"/>
    </g>
    <path d="M167.5,755 L1432.5,755 L1432.5,760 L167.5,760 z" fill="#9E9F9E"/>
    <path d="M167.5,765 L1432.5,765 L1432.5,770 L167.5,770 z" fill="#9E9F9E"/>
    <path d="M620,720 L980,720 L980,1120 L620,1120 z" fill="#E5DAC9"/>
    <path d="M575,710 L1025,710 L1025,730 L575,730 z" fill="#9D6139"/>
    <path d="M290,745 C290,750.5 285.5,755 280,755 L200,755 C194.5,755 190,750.5 190,745 L190,735 C190,729.5 194.5,725 200,725 L280,725 C285.5,725 290,729.5 290,735 L290,745" fill="#356D37"/>
    <path d="M290,724.33 C290,727.08 287.75,729.33 285,729.33 L195,729.33 C192.25,729.33 190,727.08 190,724.33 C190,721.58 192.25,719.33 195,719.33 L285,719.33 C287.75,719.33 290,721.58 290,724.33" fill="#D3A551"/>
    <path d="M247.5,727.165 C247.5,729.915 245.25,732.165 242.5,732.165 L237.5,732.165 C234.75,732.165 232.5,729.915 232.5,727.165 L232.5,717.165 C232.5,714.415 234.75,712.165 237.5,712.165 L242.5,712.165 C245.25,712.165 247.5,714.415 247.5,717.165 L247.5,727.165" fill="#4D4E4C"/>
    <path d="M1410,745 C1410,750.5 1405.5,755 1400,755 L1320,755 C1314.5,755 1310,750.5 1310,745 L1310,735 C1310,729.5 1314.5,725 1320,725 L1400,725 C1405.5,725 1410,729.5 1410,735 L1410,745" fill="#356D37"/>
    <path d="M1410,724.33 C1410,727.08 1407.75,729.33 1405,729.33 L1315,729.33 C1312.25,729.33 1310,727.08 1310,724.33 C1310,721.58 1312.25,719.33 1315,719.33 L1405,719.33 C1407.75,719.33 1410,721.58 1410,724.33" fill="#D3A551"/>
    <path d="M1367.5,727.165 C1367.5,729.915 1365.25,732.165 1362.5,732.165 L1357.5,732.165 C1354.75,732.165 1352.5,729.915 1352.5,727.165 L1352.5,717.165 C1352.5,714.415 1354.75,712.165 1357.5,712.165 L1362.5,712.165 C1365.25,712.165 1367.5,714.415 1367.5,717.165 L1367.5,727.165" fill="#4D4E4C"/>
    <path d="M207.834,1062.83 C207.834,1065.58 205.584,1067.83 202.834,1067.83 L167.834,1067.83 C165.084,1067.83 162.834,1065.58 162.834,1062.83 L162.834,1007.83 C162.834,1005.08 165.084,1002.83 167.834,1002.83 L202.834,1002.83 C205.584,1002.83 207.834,1005.08 207.834,1007.83 L207.834,1062.83" fill="#FFFFFE"/>
    <path d="M167.834,1000 C163.515,1000 160,1003.51 160,1007.83 L160,1062.83 C160,1067.16 163.515,1070.67 167.834,1070.67 L202.834,1070.67 C207.154,1070.67 210.669,1067.16 210.669,1062.83 L210.669,1007.83 C210.669,1003.51 207.154,1000 202.834,1000 L167.834,1000 z M165.669,1062.83 L165.669,1007.83 C165.669,1006.64 166.641,1005.67 167.834,1005.67 L202.834,1005.67 C204.028,1005.67 205,1006.64 205,1007.83 L205,1062.83 C205,1064.03 204.028,1065 202.834,1065 L167.834,1065 C166.641,1065 165.669,1064.03 165.669,1062.83" fill="#CBCCCB"/>
    <path d="M179.537,1020.09 L179.537,1027.1 C179.537,1027.88 180.171,1028.52 180.954,1028.52 C181.737,1028.52 182.372,1027.88 182.372,1027.1 L182.372,1020.09 C182.372,1019.31 181.737,1018.67 180.954,1018.67 C180.171,1018.67 179.537,1019.31 179.537,1020.09" fill="#CBCCCB"/>
    <path d="M188.297,1020.09 L188.297,1027.1 C188.297,1027.88 188.932,1028.52 189.715,1028.52 C190.498,1028.52 191.132,1027.88 191.132,1027.1 L191.132,1020.09 C191.132,1019.31 190.498,1018.67 189.715,1018.67 C188.932,1018.67 188.297,1019.31 188.297,1020.09" fill="#CBCCCB"/>
    <path d="M179.537,1043.57 L179.537,1050.58 C179.537,1051.36 180.171,1052 180.954,1052 C181.737,1052 182.372,1051.36 182.372,1050.58 L182.372,1043.57 C182.372,1042.79 181.737,1042.15 180.954,1042.15 C180.171,1042.15 179.537,1042.79 179.537,1043.57" fill="#CBCCCB"/>
    <g clip-path="url(#Clip_3)">
      <path d="M188.297,1043.57 L188.297,1050.58 C188.297,1051.36 188.932,1052 189.715,1052 C190.498,1052 191.132,1051.36 191.132,1050.58 L191.132,1043.57 C191.132,1042.79 190.498,1042.15 189.715,1042.15 C188.932,1042.15 188.297,1042.79 188.297,1043.57" fill="#CBCCCB"/>
      <path d="M363.871,1241.17 C363.871,1245 360.766,1248.11 356.936,1248.11 C353.105,1248.11 350,1245 350,1241.17 L350,1087.74 C350,1083.91 353.105,1080.8 356.936,1080.8 C360.766,1080.8 363.871,1083.91 363.871,1087.74 L363.871,1241.17" fill="#CBCCCB"/>
      <path d="M540,1241.17 C540,1245 536.895,1248.11 533.064,1248.11 C529.234,1248.11 526.129,1245 526.129,1241.17 L526.129,1087.74 C526.129,1083.91 529.234,1080.8 533.064,1080.8 C536.895,1080.8 540,1083.91 540,1087.74 L540,1241.17" fill="#CBCCCB"/>
      <path d="M303.268,1237.22 C303.268,1242.19 299.537,1246.22 294.936,1246.22 C290.334,1246.22 286.602,1242.19 286.602,1237.22 L286.602,906.882 C286.602,901.912 290.334,897.883 294.936,897.883 C299.537,897.883 303.268,901.912 303.268,906.882 L303.268,1237.22" fill="#CBCCCB"/>
      <path d="M337.621,1217.38 C337.621,1222.35 333.891,1226.38 329.289,1226.38 C324.688,1226.38 320.955,1222.35 320.955,1217.38 L320.955,906.882 C320.955,901.912 324.688,897.883 329.289,897.883 C333.891,897.883 337.621,901.912 337.621,906.882 L337.621,1217.38" fill="#CBCCCB"/>
      <path d="M603.396,1237.22 C603.396,1242.19 599.666,1246.22 595.064,1246.22 C590.463,1246.22 586.732,1242.19 586.732,1237.22 L586.732,906.882 C586.732,901.912 590.463,897.883 595.064,897.883 C599.666,897.883 603.396,901.912 603.396,906.882 L603.396,1237.22" fill="#CBCCCB"/>
      <path d="M568.49,1217.38 C568.49,1222.35 564.759,1226.38 560.158,1226.38 C555.556,1226.38 551.826,1222.35 551.826,1217.38 L551.826,906.882 C551.826,901.912 555.556,897.883 560.158,897.883 C564.759,897.883 568.49,901.912 568.49,906.882 L568.49,1217.38" fill="#CBCCCB"/>
    </g>
    <path d="M582.646,889.215 L307.352,889.215 C294.785,889.215 284.6,893.442 284.6,898.658 L284.6,899.602 C284.6,903.608 290.613,907.029 299.098,908.401 C297.668,911.103 296.859,914.151 296.859,917.382 L296.859,919.38 C296.859,930.426 306.268,939.38 317.873,939.38 L572.127,939.38 C583.732,939.38 593.141,930.426 593.141,919.38 L593.141,917.382 C593.141,914.151 592.33,911.103 590.902,908.401 C599.385,907.029 605.4,903.608 605.4,899.602 L605.4,898.658 C605.4,893.442 595.213,889.215 582.646,889.215" fill="#777776"/>
    <path d="M620,886.442 C620,889.871 615.834,892.677 610.742,892.677 L279.258,892.677 C274.166,892.677 270,889.871 270,886.442 C270,883.014 274.166,880.208 279.258,880.208 L610.742,880.208 C615.834,880.208 620,883.014 620,886.442" fill="#D3A551"/>
    <path d="M552.5,905.21 C552.5,916.14 543.588,925 532.594,925 L357.404,925 C346.412,925 337.5,916.14 337.5,905.21 L337.5,849.79 C337.5,838.86 346.412,830 357.404,830 L532.594,830 C543.588,830 552.5,838.86 552.5,849.79 L552.5,905.21" fill="#D3A551"/>
    <path d="M540,895.849 C540,881.979 529.629,870.693 516.883,870.693 L373.117,870.693 C360.369,870.693 350,881.979 350,895.849 L350,1057.6 C350,1058.25 350.029,1058.89 350.074,1059.52 C352.346,1060.42 354.813,1060.93 357.404,1060.93 L364.082,1060.93 C363.752,1059.88 363.564,1058.77 363.564,1057.6 L363.564,895.849 C363.564,890.151 367.85,885.516 373.117,885.516 L516.883,885.516 C522.148,885.516 526.434,890.151 526.434,895.849 L526.434,1057.6 C526.434,1058.77 526.246,1059.88 525.918,1060.93 L532.594,1060.93 C535.186,1060.93 537.654,1060.42 539.926,1059.52 C539.971,1058.89 540,1058.25 540,1057.6 L540,895.849" fill="#CBCCCB"/>
    <g clip-path="url(#Clip_4)">
      <path d="M566.672,1076.05 C566.672,1086.98 557.76,1095.84 546.768,1095.84 L343.232,1095.84 C332.238,1095.84 323.328,1086.98 323.328,1076.05 L323.328,1071.66 C323.328,1060.73 332.238,1051.87 343.232,1051.87 L546.768,1051.87 C557.76,1051.87 566.672,1060.73 566.672,1071.66 L566.672,1076.05" fill="#D3A551"/>
      <path d="M330.817,1161.99 C329.321,1161.99 327.851,1162.38 326.556,1163.13 L292.175,1183.04 C288.111,1185.39 286.723,1190.6 289.077,1194.66 C291.43,1198.72 296.632,1200.11 300.697,1197.76 C300.697,1197.76 329.589,1181.03 333.101,1179 C337.536,1179 553.648,1179 557.903,1179 C561.317,1180.88 589.87,1196.64 589.87,1196.64 C593.982,1198.91 599.155,1197.41 601.424,1193.3 C603.694,1189.19 602.2,1184.02 598.088,1181.75 L564.203,1163.05 C562.944,1162.35 561.531,1161.99 560.094,1161.99 L330.817,1161.99" fill="#CBCCCB"/>
      <path d="M65,1241.17 C65,1245 61.895,1248.11 58.065,1248.11 C54.234,1248.11 51.129,1245 51.129,1241.17 L51.129,1087.74 C51.129,1083.91 54.234,1080.8 58.065,1080.8 C61.895,1080.8 65,1083.91 65,1087.74 L65,1241.17" fill="#CBCCCB"/>
      <path d="M128.396,1237.22 C128.396,1242.19 124.666,1246.22 120.064,1246.22 C115.463,1246.22 111.732,1242.19 111.732,1237.22 L111.732,906.882 C111.732,901.912 115.463,897.883 120.064,897.883 C124.666,897.883 128.396,901.912 128.396,906.882 L128.396,1237.22" fill="#CBCCCB"/>
      <path d="M93.49,1217.38 C93.49,1222.35 89.759,1226.38 85.158,1226.38 C80.556,1226.38 76.826,1222.35 76.826,1217.38 L76.826,906.882 C76.826,901.912 80.556,897.883 85.158,897.883 C89.759,897.883 93.49,901.912 93.49,906.882 L93.49,1217.38" fill="#CBCCCB"/>
      <path d="M107.646,889.215 L-167.648,889.215 C-180.215,889.215 -190.4,893.442 -190.4,898.658 L-190.4,899.602 C-190.4,903.608 -184.387,907.029 -175.902,908.401 C-177.332,911.103 -178.141,914.151 -178.141,917.382 L-178.141,919.38 C-178.141,930.426 -168.732,939.38 -157.127,939.38 L97.127,939.38 C108.732,939.38 118.141,930.426 118.141,919.38 L118.141,917.382 C118.141,914.151 117.33,911.103 115.902,908.401 C124.385,907.029 130.4,903.608 130.4,899.602 L130.4,898.658 C130.4,893.442 120.213,889.215 107.646,889.215" fill="#777776"/>
      <path d="M145,886.442 C145,889.871 140.834,892.677 135.742,892.677 L-195.742,892.677 C-200.834,892.677 -205,889.871 -205,886.442 C-205,883.014 -200.834,880.208 -195.742,880.208 L135.742,880.208 C140.834,880.208 145,883.014 145,886.442" fill="#D3A551"/>
      <path d="M77.5,905.21 C77.5,916.14 68.588,925 57.594,925 L-117.596,925 C-128.588,925 -137.5,916.14 -137.5,905.21 L-137.5,849.79 C-137.5,838.86 -128.588,830 -117.596,830 L57.594,830 C68.588,830 77.5,838.86 77.5,849.79 L77.5,905.21" fill="#D3A551"/>
      <path d="M65,895.849 C65,881.979 54.629,870.693 41.883,870.693 L-101.883,870.693 C-114.631,870.693 -125,881.979 -125,895.849 L-125,1057.6 C-125,1058.25 -124.971,1058.89 -124.926,1059.52 C-122.654,1060.42 -120.188,1060.93 -117.596,1060.93 L-110.918,1060.93 C-111.248,1059.88 -111.436,1058.77 -111.436,1057.6 L-111.436,895.849 C-111.436,890.151 -107.15,885.516 -101.883,885.516 L41.883,885.516 C47.148,885.516 51.434,890.151 51.434,895.849 L51.434,1057.6 C51.434,1058.77 51.246,1059.88 50.918,1060.93 L57.594,1060.93 C60.186,1060.93 62.654,1060.42 64.926,1059.52 C64.971,1058.89 65,1058.25 65,1057.6 L65,895.849" fill="#CBCCCB"/>
      <path d="M91.672,1076.05 C91.672,1086.98 82.76,1095.84 71.768,1095.84 L-131.768,1095.84 C-142.762,1095.84 -151.672,1086.98 -151.672,1076.05 L-151.672,1071.66 C-151.672,1060.73 -142.762,1051.87 -131.768,1051.87 L71.768,1051.87 C82.76,1051.87 91.672,1060.73 91.672,1071.66 L91.672,1076.05" fill="#D3A551"/>
      <path d="M-144.183,1161.99 C-145.679,1161.99 -147.149,1162.38 -148.444,1163.13 L-182.825,1183.04 C-186.889,1185.39 -188.277,1190.6 -185.923,1194.66 C-183.57,1198.72 -178.368,1200.11 -174.303,1197.76 C-174.303,1197.76 -145.411,1181.03 -141.899,1179 C-137.464,1179 78.648,1179 82.903,1179 C86.317,1180.88 114.87,1196.64 114.87,1196.64 C118.982,1198.91 124.155,1197.41 126.424,1193.3 C128.694,1189.19 127.2,1184.02 123.088,1181.75 L89.203,1163.05 C87.944,1162.35 86.531,1161.99 85.094,1161.99 L-144.183,1161.99" fill="#CBCCCB"/>
      <path d="M1073.87,1241.17 C1073.87,1245 1070.77,1248.11 1066.94,1248.11 C1063.11,1248.11 1060,1245 1060,1241.17 L1060,1087.74 C1060,1083.91 1063.11,1080.8 1066.94,1080.8 C1070.77,1080.8 1073.87,1083.91 1073.87,1087.74 L1073.87,1241.17" fill="#CBCCCB"/>
      <path d="M1250,1241.17 C1250,1245 1246.89,1248.11 1243.06,1248.11 C1239.23,1248.11 1236.13,1245 1236.13,1241.17 L1236.13,1087.74 C1236.13,1083.91 1239.23,1080.8 1243.06,1080.8 C1246.89,1080.8 1250,1083.91 1250,1087.74 L1250,1241.17" fill="#CBCCCB"/>
      <path d="M1013.27,1237.22 C1013.27,1242.19 1009.54,1246.22 1004.94,1246.22 C1000.33,1246.22 996.602,1242.19 996.602,1237.22 L996.602,906.882 C996.602,901.912 1000.33,897.883 1004.94,897.883 C1009.54,897.883 1013.27,901.912 1013.27,906.882 L1013.27,1237.22" fill="#CBCCCB"/>
      <path d="M1047.62,1217.38 C1047.62,1222.35 1043.89,1226.38 1039.29,1226.38 C1034.69,1226.38 1030.96,1222.35 1030.96,1217.38 L1030.96,906.882 C1030.96,901.912 1034.69,897.883 1039.29,897.883 C1043.89,897.883 1047.62,901.912 1047.62,906.882 L1047.62,1217.38" fill="#CBCCCB"/>
      <path d="M1313.4,1237.22 C1313.4,1242.19 1309.67,1246.22 1305.06,1246.22 C1300.46,1246.22 1296.73,1242.19 1296.73,1237.22 L1296.73,906.882 C1296.73,901.912 1300.46,897.883 1305.06,897.883 C1309.67,897.883 1313.4,901.912 1313.4,906.882 L1313.4,1237.22" fill="#CBCCCB"/>
      <path d="M1278.49,1217.38 C1278.49,1222.35 1274.76,1226.38 1270.16,1226.38 C1265.56,1226.38 1261.83,1222.35 1261.83,1217.38 L1261.83,906.882 C1261.83,901.912 1265.56,897.883 1270.16,897.883 C1274.76,897.883 1278.49,901.912 1278.49,906.882 L1278.49,1217.38" fill="#CBCCCB"/>
    </g>
    <path d="M1292.65,889.215 L1017.35,889.215 C1004.79,889.215 994.6,893.442 994.6,898.658 L994.6,899.602 C994.6,903.608 1000.61,907.029 1009.1,908.401 C1007.67,911.103 1006.86,914.151 1006.86,917.382 L1006.86,919.38 C1006.86,930.426 1016.27,939.38 1027.87,939.38 L1282.13,939.38 C1293.73,939.38 1303.14,930.426 1303.14,919.38 L1303.14,917.382 C1303.14,914.151 1302.33,911.103 1300.9,908.401 C1309.38,907.029 1315.4,903.608 1315.4,899.602 L1315.4,898.658 C1315.4,893.442 1305.21,889.215 1292.65,889.215" fill="#777776"/>
    <path d="M1330,886.442 C1330,889.871 1325.83,892.677 1320.74,892.677 L989.258,892.677 C984.166,892.677 980,889.871 980,886.442 C980,883.014 984.166,880.208 989.258,880.208 L1320.74,880.208 C1325.83,880.208 1330,883.014 1330,886.442" fill="#D3A551"/>
    <path d="M1262.5,905.21 C1262.5,916.14 1253.59,925 1242.59,925 L1067.4,925 C1056.41,925 1047.5,916.14 1047.5,905.21 L1047.5,849.79 C1047.5,838.86 1056.41,830 1067.4,830 L1242.59,830 C1253.59,830 1262.5,838.86 1262.5,849.79 L1262.5,905.21" fill="#D3A551"/>
    <path d="M1250,895.849 C1250,881.979 1239.63,870.693 1226.88,870.693 L1083.12,870.693 C1070.37,870.693 1060,881.979 1060,895.849 L1060,1057.6 C1060,1058.25 1060.03,1058.89 1060.07,1059.52 C1062.35,1060.42 1064.81,1060.93 1067.4,1060.93 L1074.08,1060.93 C1073.75,1059.88 1073.56,1058.77 1073.56,1057.6 L1073.56,895.849 C1073.56,890.151 1077.85,885.516 1083.12,885.516 L1226.88,885.516 C1232.15,885.516 1236.43,890.151 1236.43,895.849 L1236.43,1057.6 C1236.43,1058.77 1236.25,1059.88 1235.92,1060.93 L1242.59,1060.93 C1245.19,1060.93 1247.65,1060.42 1249.93,1059.52 C1249.97,1058.89 1250,1058.25 1250,1057.6 L1250,895.849" fill="#CBCCCB"/>
    <g clip-path="url(#Clip_5)">
      <path d="M1276.67,1076.05 C1276.67,1086.98 1267.76,1095.84 1256.77,1095.84 L1053.23,1095.84 C1042.24,1095.84 1033.33,1086.98 1033.33,1076.05 L1033.33,1071.66 C1033.33,1060.73 1042.24,1051.87 1053.23,1051.87 L1256.77,1051.87 C1267.76,1051.87 1276.67,1060.73 1276.67,1071.66 L1276.67,1076.05" fill="#D3A551"/>
      <path d="M1040.82,1161.99 C1039.32,1161.99 1037.85,1162.38 1036.56,1163.13 L1002.18,1183.04 C998.111,1185.39 996.724,1190.6 999.077,1194.66 C1001.43,1198.72 1006.63,1200.11 1010.7,1197.76 C1010.7,1197.76 1039.59,1181.03 1043.1,1179 C1047.54,1179 1263.65,1179 1267.9,1179 C1271.32,1180.88 1299.87,1196.64 1299.87,1196.64 C1303.98,1198.91 1309.16,1197.41 1311.42,1193.3 C1313.69,1189.19 1312.2,1184.02 1308.09,1181.75 L1274.2,1163.05 C1272.95,1162.35 1271.53,1161.99 1270.09,1161.99 L1040.82,1161.99" fill="#CBCCCB"/>
      <path d="M1543.87,1241.17 C1543.87,1245 1540.77,1248.11 1536.94,1248.11 C1533.11,1248.11 1530,1245 1530,1241.17 L1530,1087.74 C1530,1083.91 1533.11,1080.8 1536.94,1080.8 C1540.77,1080.8 1543.87,1083.91 1543.87,1087.74 L1543.87,1241.17" fill="#CBCCCB"/>
      <path d="M1483.27,1237.22 C1483.27,1242.19 1479.54,1246.22 1474.94,1246.22 C1470.33,1246.22 1466.6,1242.19 1466.6,1237.22 L1466.6,906.882 C1466.6,901.912 1470.33,897.883 1474.94,897.883 C1479.54,897.883 1483.27,901.912 1483.27,906.882 L1483.27,1237.22" fill="#CBCCCB"/>
      <path d="M1517.62,1217.38 C1517.62,1222.35 1513.89,1226.38 1509.29,1226.38 C1504.69,1226.38 1500.96,1222.35 1500.96,1217.38 L1500.96,906.882 C1500.96,901.912 1504.69,897.883 1509.29,897.883 C1513.89,897.883 1517.62,901.912 1517.62,906.882 L1517.62,1217.38" fill="#CBCCCB"/>
      <path d="M1762.65,889.215 L1487.35,889.215 C1474.79,889.215 1464.6,893.442 1464.6,898.658 L1464.6,899.602 C1464.6,903.608 1470.61,907.029 1479.1,908.401 C1477.67,911.103 1476.86,914.151 1476.86,917.382 L1476.86,919.38 C1476.86,930.426 1486.27,939.38 1497.87,939.38 L1752.13,939.38 C1763.73,939.38 1773.14,930.426 1773.14,919.38 L1773.14,917.382 C1773.14,914.151 1772.33,911.103 1770.9,908.401 C1779.38,907.029 1785.4,903.608 1785.4,899.602 L1785.4,898.658 C1785.4,893.442 1775.21,889.215 1762.65,889.215" fill="#777776"/>
      <path d="M1800,886.442 C1800,889.871 1795.83,892.677 1790.74,892.677 L1459.26,892.677 C1454.17,892.677 1450,889.871 1450,886.442 C1450,883.014 1454.17,880.208 1459.26,880.208 L1790.74,880.208 C1795.83,880.208 1800,883.014 1800,886.442" fill="#D3A551"/>
      <path d="M1732.5,905.21 C1732.5,916.14 1723.59,925 1712.59,925 L1537.4,925 C1526.41,925 1517.5,916.14 1517.5,905.21 L1517.5,849.79 C1517.5,838.86 1526.41,830 1537.4,830 L1712.59,830 C1723.59,830 1732.5,838.86 1732.5,849.79 L1732.5,905.21" fill="#D3A551"/>
      <path d="M1720,895.849 C1720,881.979 1709.63,870.693 1696.88,870.693 L1553.12,870.693 C1540.37,870.693 1530,881.979 1530,895.849 L1530,1057.6 C1530,1058.25 1530.03,1058.89 1530.07,1059.52 C1532.35,1060.42 1534.81,1060.93 1537.4,1060.93 L1544.08,1060.93 C1543.75,1059.88 1543.56,1058.77 1543.56,1057.6 L1543.56,895.849 C1543.56,890.151 1547.85,885.516 1553.12,885.516 L1696.88,885.516 C1702.15,885.516 1706.43,890.151 1706.43,895.849 L1706.43,1057.6 C1706.43,1058.77 1706.25,1059.88 1705.92,1060.93 L1712.59,1060.93 C1715.19,1060.93 1717.65,1060.42 1719.93,1059.52 C1719.97,1058.89 1720,1058.25 1720,1057.6 L1720,895.849" fill="#CBCCCB"/>
      <path d="M1746.67,1076.05 C1746.67,1086.98 1737.76,1095.84 1726.77,1095.84 L1523.23,1095.84 C1512.24,1095.84 1503.33,1086.98 1503.33,1076.05 L1503.33,1071.66 C1503.33,1060.73 1512.24,1051.87 1523.23,1051.87 L1726.77,1051.87 C1737.76,1051.87 1746.67,1060.73 1746.67,1071.66 L1746.67,1076.05" fill="#D3A551"/>
      <path d="M1510.82,1161.99 C1509.32,1161.99 1507.85,1162.38 1506.56,1163.13 L1472.18,1183.04 C1468.11,1185.39 1466.72,1190.6 1469.08,1194.66 C1471.43,1198.72 1476.63,1200.11 1480.7,1197.76 C1480.7,1197.76 1509.59,1181.03 1513.1,1179 C1517.54,1179 1733.65,1179 1737.9,1179 C1741.32,1180.88 1769.87,1196.64 1769.87,1196.64 C1773.98,1198.91 1779.16,1197.41 1781.42,1193.3 C1783.69,1189.19 1782.2,1184.02 1778.09,1181.75 L1744.2,1163.05 C1742.95,1162.35 1741.53,1161.99 1740.09,1161.99 L1510.82,1161.99" fill="#CBCCCB"/>
    </g>
  </g>
</svg>
